<?xml version="1.0" standalone="no"?><!DOCTYPE svg PUBLIC "-//W3C//DTD SVG 1.1//EN" "http://www.w3.org/Graphics/SVG/1.1/DTD/svg11.dtd"><svg t="1755848235300" class="icon" viewBox="0 0 1024 1024" version="1.1" xmlns="http://www.w3.org/2000/svg" p-id="26849" xmlns:xlink="http://www.w3.org/1999/xlink" width="200" height="200"><path d="M480 160V64h64v96h-64z m180.288 31.168l48-83.136 55.424 32-48 83.136-55.424-32zM512 736a224 224 0 1 0 0-448 224 224 0 0 0 0 448z m0 64a288 288 0 1 0 0-576 288 288 0 0 0 0 576z m352-320h96v64h-96v-64z m19.968-219.712l-83.136 48 32 55.424 83.136-48-32-55.424zM260.288 140.032l48 83.136 55.424-32-48-83.136-55.424 32z m-69.12 223.68l-83.136-48 32-55.424 83.136 48-32 55.424zM480 864v96h64v-96h-64zM160 480H64v64h96v-64z m-51.968 228.288l83.136-48 32 55.424-83.136 48-32-55.424z m200.256 92.544l-48 83.168 55.424 32 48-83.168-55.424-32z m400 115.168l-48-83.168 55.424-32 48 83.168-55.424 32z m92.544-200.288l83.136 48 32-55.424-83.136-48-32 55.424z" p-id="26850"></path></svg>